<svg width="400" height="300" xmlns="http://www.w3.org/2000/svg">
  <rect width="400" height="300" fill="#f8fafc"/>
  <rect x="100" y="50" width="200" height="200" rx="4" fill="#fff" stroke="#0a2472" stroke-width="3"/>
  <rect x="110" y="60" width="30" height="30" rx="2" fill="#0a2472"/>
  <rect x="150" y="60" width="30" height="30" rx="2" fill="#fff" stroke="#0a2472" stroke-width="2"/>
  <rect x="190" y="60" width="30" height="30" rx="2" fill="#0a2472"/>
  <rect x="230" y="60" width="30" height="30" rx="2" fill="#fff" stroke="#0a2472" stroke-width="2"/>
  <rect x="270" y="60" width="20" height="20" rx="1" fill="#0a2472"/>
  <rect x="110" y="100" width="30" height="30" rx="2" fill="#fff" stroke="#0a2472" stroke-width="2"/>
  <rect x="150" y="100" width="30" height="30" rx="2" fill="#0a2472"/>
  <rect x="190" y="100" width="30" height="30" rx="2" fill="#fff" stroke="#0a2472" stroke-width="2"/>
  <rect x="230" y="100" width="30" height="30" rx="2" fill="#0a2472"/>
  <rect x="110" y="140" width="30" height="30" rx="2" fill="#0a2472"/>
  <rect x="150" y="140" width="30" height="30" rx="2" fill="#fff" stroke="#0a2472" stroke-width="2"/>
  <rect x="190" y="140" width="30" height="30" rx="2" fill="#0a2472"/>
  <rect x="230" y="140" width="30" height="30" rx="2" fill="#fff" stroke="#0a2472" stroke-width="2"/>
  <rect x="110" y="180" width="30" height="30" rx="2" fill="#fff" stroke="#0a2472" stroke-width="2"/>
  <rect x="150" y="180" width="30" height="30" rx="2" fill="#0a2472"/>
  <rect x="190" y="180" width="30" height="30" rx="2" fill="#fff" stroke="#0a2472" stroke-width="2"/>
  <rect x="230" y="180" width="30" height="30" rx="2" fill="#0a2472"/>
  <rect x="270" y="180" width="20" height="20" rx="1" fill="#0a2472"/>
  <text x="200" y="265" font-family="Arial, sans-serif" font-size="14" fill="#0a2472" text-anchor="middle" font-weight="bold">QR Code Generator</text>
</svg>
